<mxfile host="app.diagrams.net" modified="2020-08-19T04:29:16.353Z" agent="5.0 (X11)" etag="SzuK4xU52gqUyp3pJC5k" version="13.6.3" type="github">
  <diagram id="R2lEEEUBdFMjLlhIrx00" name="Page-1">
    <mxGraphModel dx="1732" dy="1162" grid="1" gridSize="10" guides="1" tooltips="1" connect="1" arrows="1" fold="1" page="1" pageScale="1" pageWidth="850" pageHeight="1100" math="0" shadow="0" extFonts="Permanent Marker^https://fonts.googleapis.com/css?family=Permanent+Marker">
      <root>
        <mxCell id="0" />
        <mxCell id="1" parent="0" />
        <mxCell id="9G6bg_ibOIS68hajb5Cq-91" value="address" style="shape=table;startSize=30;container=1;collapsible=1;childLayout=tableLayout;fixedRows=1;rowLines=0;fontStyle=1;align=center;resizeLast=1;" vertex="1" parent="1">
          <mxGeometry x="660" y="490" width="180" height="280" as="geometry" />
        </mxCell>
        <mxCell id="9G6bg_ibOIS68hajb5Cq-92" value="" style="shape=partialRectangle;collapsible=0;dropTarget=0;pointerEvents=0;fillColor=none;top=0;left=0;bottom=1;right=0;points=[[0,0.5],[1,0.5]];portConstraint=eastwest;" vertex="1" parent="9G6bg_ibOIS68hajb5Cq-91">
          <mxGeometry y="30" width="180" height="30" as="geometry" />
        </mxCell>
        <mxCell id="9G6bg_ibOIS68hajb5Cq-93" value="PK" style="shape=partialRectangle;connectable=0;fillColor=none;top=0;left=0;bottom=0;right=0;fontStyle=1;overflow=hidden;" vertex="1" parent="9G6bg_ibOIS68hajb5Cq-92">
          <mxGeometry width="30" height="30" as="geometry" />
        </mxCell>
        <mxCell id="9G6bg_ibOIS68hajb5Cq-94" value="id" style="shape=partialRectangle;connectable=0;fillColor=none;top=0;left=0;bottom=0;right=0;align=left;spacingLeft=6;fontStyle=1;overflow=hidden;" vertex="1" parent="9G6bg_ibOIS68hajb5Cq-92">
          <mxGeometry x="30" width="150" height="30" as="geometry" />
        </mxCell>
        <mxCell id="9G6bg_ibOIS68hajb5Cq-95" value="" style="shape=partialRectangle;collapsible=0;dropTarget=0;pointerEvents=0;fillColor=none;top=0;left=0;bottom=0;right=0;points=[[0,0.5],[1,0.5]];portConstraint=eastwest;" vertex="1" parent="9G6bg_ibOIS68hajb5Cq-91">
          <mxGeometry y="60" width="180" height="30" as="geometry" />
        </mxCell>
        <mxCell id="9G6bg_ibOIS68hajb5Cq-96" value="FK" style="shape=partialRectangle;connectable=0;fillColor=none;top=0;left=0;bottom=0;right=0;editable=1;overflow=hidden;" vertex="1" parent="9G6bg_ibOIS68hajb5Cq-95">
          <mxGeometry width="30" height="30" as="geometry" />
        </mxCell>
        <mxCell id="9G6bg_ibOIS68hajb5Cq-97" value="property_id" style="shape=partialRectangle;connectable=0;fillColor=none;top=0;left=0;bottom=0;right=0;align=left;spacingLeft=6;overflow=hidden;" vertex="1" parent="9G6bg_ibOIS68hajb5Cq-95">
          <mxGeometry x="30" width="150" height="30" as="geometry" />
        </mxCell>
        <mxCell id="9G6bg_ibOIS68hajb5Cq-98" value="" style="shape=partialRectangle;collapsible=0;dropTarget=0;pointerEvents=0;fillColor=none;top=0;left=0;bottom=0;right=0;points=[[0,0.5],[1,0.5]];portConstraint=eastwest;" vertex="1" parent="9G6bg_ibOIS68hajb5Cq-91">
          <mxGeometry y="90" width="180" height="30" as="geometry" />
        </mxCell>
        <mxCell id="9G6bg_ibOIS68hajb5Cq-99" value="" style="shape=partialRectangle;connectable=0;fillColor=none;top=0;left=0;bottom=0;right=0;editable=1;overflow=hidden;" vertex="1" parent="9G6bg_ibOIS68hajb5Cq-98">
          <mxGeometry width="30" height="30" as="geometry" />
        </mxCell>
        <mxCell id="9G6bg_ibOIS68hajb5Cq-100" value="country" style="shape=partialRectangle;connectable=0;fillColor=none;top=0;left=0;bottom=0;right=0;align=left;spacingLeft=6;overflow=hidden;" vertex="1" parent="9G6bg_ibOIS68hajb5Cq-98">
          <mxGeometry x="30" width="150" height="30" as="geometry" />
        </mxCell>
        <mxCell id="9G6bg_ibOIS68hajb5Cq-101" value="" style="shape=partialRectangle;collapsible=0;dropTarget=0;pointerEvents=0;fillColor=none;top=0;left=0;bottom=0;right=0;points=[[0,0.5],[1,0.5]];portConstraint=eastwest;" vertex="1" parent="9G6bg_ibOIS68hajb5Cq-91">
          <mxGeometry y="120" width="180" height="30" as="geometry" />
        </mxCell>
        <mxCell id="9G6bg_ibOIS68hajb5Cq-102" value="" style="shape=partialRectangle;connectable=0;fillColor=none;top=0;left=0;bottom=0;right=0;editable=1;overflow=hidden;" vertex="1" parent="9G6bg_ibOIS68hajb5Cq-101">
          <mxGeometry width="30" height="30" as="geometry" />
        </mxCell>
        <mxCell id="9G6bg_ibOIS68hajb5Cq-103" value="city" style="shape=partialRectangle;connectable=0;fillColor=none;top=0;left=0;bottom=0;right=0;align=left;spacingLeft=6;overflow=hidden;" vertex="1" parent="9G6bg_ibOIS68hajb5Cq-101">
          <mxGeometry x="30" width="150" height="30" as="geometry" />
        </mxCell>
        <mxCell id="9G6bg_ibOIS68hajb5Cq-104" value="" style="shape=table;startSize=0;container=1;collapsible=1;childLayout=tableLayout;fixedRows=1;rowLines=0;fontStyle=0;align=center;resizeLast=1;strokeColor=none;fillColor=none;" vertex="1" parent="1">
          <mxGeometry x="660" y="640" width="180" height="30" as="geometry" />
        </mxCell>
        <mxCell id="9G6bg_ibOIS68hajb5Cq-105" value="" style="shape=partialRectangle;collapsible=0;dropTarget=0;pointerEvents=0;fillColor=none;top=0;left=0;bottom=0;right=0;points=[[0,0.5],[1,0.5]];portConstraint=eastwest;" vertex="1" parent="9G6bg_ibOIS68hajb5Cq-104">
          <mxGeometry width="180" height="30" as="geometry" />
        </mxCell>
        <mxCell id="9G6bg_ibOIS68hajb5Cq-106" value="" style="shape=partialRectangle;connectable=0;fillColor=none;top=0;left=0;bottom=0;right=0;fontStyle=0;overflow=hidden;" vertex="1" parent="9G6bg_ibOIS68hajb5Cq-105">
          <mxGeometry width="30" height="30" as="geometry" />
        </mxCell>
        <mxCell id="9G6bg_ibOIS68hajb5Cq-107" value="street" style="shape=partialRectangle;connectable=0;fillColor=none;top=0;left=0;bottom=0;right=0;align=left;spacingLeft=6;fontStyle=0;overflow=hidden;" vertex="1" parent="9G6bg_ibOIS68hajb5Cq-105">
          <mxGeometry x="30" width="150" height="30" as="geometry" />
        </mxCell>
        <mxCell id="9G6bg_ibOIS68hajb5Cq-111" value="" style="shape=table;startSize=0;container=1;collapsible=1;childLayout=tableLayout;fixedRows=1;rowLines=0;fontStyle=0;align=center;resizeLast=1;strokeColor=none;fillColor=none;" vertex="1" parent="1">
          <mxGeometry x="660" y="670" width="180" height="30" as="geometry" />
        </mxCell>
        <mxCell id="9G6bg_ibOIS68hajb5Cq-112" value="" style="shape=partialRectangle;collapsible=0;dropTarget=0;pointerEvents=0;fillColor=none;top=0;left=0;bottom=0;right=0;points=[[0,0.5],[1,0.5]];portConstraint=eastwest;" vertex="1" parent="9G6bg_ibOIS68hajb5Cq-111">
          <mxGeometry width="180" height="30" as="geometry" />
        </mxCell>
        <mxCell id="9G6bg_ibOIS68hajb5Cq-113" value="" style="shape=partialRectangle;connectable=0;fillColor=none;top=0;left=0;bottom=0;right=0;fontStyle=0;overflow=hidden;" vertex="1" parent="9G6bg_ibOIS68hajb5Cq-112">
          <mxGeometry width="30" height="30" as="geometry" />
        </mxCell>
        <mxCell id="9G6bg_ibOIS68hajb5Cq-114" value="province" style="shape=partialRectangle;connectable=0;fillColor=none;top=0;left=0;bottom=0;right=0;align=left;spacingLeft=6;fontStyle=0;overflow=hidden;" vertex="1" parent="9G6bg_ibOIS68hajb5Cq-112">
          <mxGeometry x="30" width="150" height="30" as="geometry" />
        </mxCell>
        <mxCell id="9G6bg_ibOIS68hajb5Cq-115" value="" style="shape=table;startSize=0;container=1;collapsible=1;childLayout=tableLayout;fixedRows=1;rowLines=0;fontStyle=0;align=center;resizeLast=1;strokeColor=none;fillColor=none;" vertex="1" parent="1">
          <mxGeometry x="660" y="700" width="180" height="30" as="geometry" />
        </mxCell>
        <mxCell id="9G6bg_ibOIS68hajb5Cq-116" value="" style="shape=partialRectangle;collapsible=0;dropTarget=0;pointerEvents=0;fillColor=none;top=0;left=0;bottom=0;right=0;points=[[0,0.5],[1,0.5]];portConstraint=eastwest;" vertex="1" parent="9G6bg_ibOIS68hajb5Cq-115">
          <mxGeometry width="180" height="30" as="geometry" />
        </mxCell>
        <mxCell id="9G6bg_ibOIS68hajb5Cq-117" value="" style="shape=partialRectangle;connectable=0;fillColor=none;top=0;left=0;bottom=0;right=0;fontStyle=0;overflow=hidden;" vertex="1" parent="9G6bg_ibOIS68hajb5Cq-116">
          <mxGeometry width="30" height="30" as="geometry" />
        </mxCell>
        <mxCell id="9G6bg_ibOIS68hajb5Cq-118" value="postcode" style="shape=partialRectangle;connectable=0;fillColor=none;top=0;left=0;bottom=0;right=0;align=left;spacingLeft=6;fontStyle=0;overflow=hidden;" vertex="1" parent="9G6bg_ibOIS68hajb5Cq-116">
          <mxGeometry x="30" width="150" height="30" as="geometry" />
        </mxCell>
        <mxCell id="9G6bg_ibOIS68hajb5Cq-152" value="" style="fontSize=12;html=1;endArrow=ERmany;exitX=0;exitY=0.5;exitDx=0;exitDy=0;edgeStyle=orthogonalEdgeStyle;entryX=0;entryY=0.5;entryDx=0;entryDy=0;" edge="1" parent="1" source="9G6bg_ibOIS68hajb5Cq-42" target="9G6bg_ibOIS68hajb5Cq-82">
          <mxGeometry width="100" height="100" relative="1" as="geometry">
            <mxPoint x="350" y="290" as="sourcePoint" />
            <mxPoint x="610" y="100" as="targetPoint" />
            <Array as="points">
              <mxPoint x="360" y="195" />
              <mxPoint x="360" y="105" />
            </Array>
          </mxGeometry>
        </mxCell>
        <mxCell id="9G6bg_ibOIS68hajb5Cq-78" value="property_images" style="shape=table;startSize=30;container=1;collapsible=1;childLayout=tableLayout;fixedRows=1;rowLines=0;fontStyle=1;align=center;resizeLast=1;" vertex="1" parent="1">
          <mxGeometry x="650" y="30" width="180" height="160" as="geometry" />
        </mxCell>
        <mxCell id="9G6bg_ibOIS68hajb5Cq-79" value="" style="shape=partialRectangle;collapsible=0;dropTarget=0;pointerEvents=0;fillColor=none;top=0;left=0;bottom=1;right=0;points=[[0,0.5],[1,0.5]];portConstraint=eastwest;" vertex="1" parent="9G6bg_ibOIS68hajb5Cq-78">
          <mxGeometry y="30" width="180" height="30" as="geometry" />
        </mxCell>
        <mxCell id="9G6bg_ibOIS68hajb5Cq-80" value="PK" style="shape=partialRectangle;connectable=0;fillColor=none;top=0;left=0;bottom=0;right=0;fontStyle=1;overflow=hidden;" vertex="1" parent="9G6bg_ibOIS68hajb5Cq-79">
          <mxGeometry width="30" height="30" as="geometry" />
        </mxCell>
        <mxCell id="9G6bg_ibOIS68hajb5Cq-81" value="id" style="shape=partialRectangle;connectable=0;fillColor=none;top=0;left=0;bottom=0;right=0;align=left;spacingLeft=6;fontStyle=1;overflow=hidden;" vertex="1" parent="9G6bg_ibOIS68hajb5Cq-79">
          <mxGeometry x="30" width="150" height="30" as="geometry" />
        </mxCell>
        <mxCell id="9G6bg_ibOIS68hajb5Cq-82" value="" style="shape=partialRectangle;collapsible=0;dropTarget=0;pointerEvents=0;fillColor=none;top=0;left=0;bottom=0;right=0;points=[[0,0.5],[1,0.5]];portConstraint=eastwest;" vertex="1" parent="9G6bg_ibOIS68hajb5Cq-78">
          <mxGeometry y="60" width="180" height="30" as="geometry" />
        </mxCell>
        <mxCell id="9G6bg_ibOIS68hajb5Cq-83" value="FK" style="shape=partialRectangle;connectable=0;fillColor=none;top=0;left=0;bottom=0;right=0;editable=1;overflow=hidden;" vertex="1" parent="9G6bg_ibOIS68hajb5Cq-82">
          <mxGeometry width="30" height="30" as="geometry" />
        </mxCell>
        <mxCell id="9G6bg_ibOIS68hajb5Cq-84" value="properties_id" style="shape=partialRectangle;connectable=0;fillColor=none;top=0;left=0;bottom=0;right=0;align=left;spacingLeft=6;overflow=hidden;" vertex="1" parent="9G6bg_ibOIS68hajb5Cq-82">
          <mxGeometry x="30" width="150" height="30" as="geometry" />
        </mxCell>
        <mxCell id="9G6bg_ibOIS68hajb5Cq-85" value="" style="shape=partialRectangle;collapsible=0;dropTarget=0;pointerEvents=0;fillColor=none;top=0;left=0;bottom=0;right=0;points=[[0,0.5],[1,0.5]];portConstraint=eastwest;" vertex="1" parent="9G6bg_ibOIS68hajb5Cq-78">
          <mxGeometry y="90" width="180" height="30" as="geometry" />
        </mxCell>
        <mxCell id="9G6bg_ibOIS68hajb5Cq-86" value="" style="shape=partialRectangle;connectable=0;fillColor=none;top=0;left=0;bottom=0;right=0;editable=1;overflow=hidden;" vertex="1" parent="9G6bg_ibOIS68hajb5Cq-85">
          <mxGeometry width="30" height="30" as="geometry" />
        </mxCell>
        <mxCell id="9G6bg_ibOIS68hajb5Cq-87" value="thumbnail" style="shape=partialRectangle;connectable=0;fillColor=none;top=0;left=0;bottom=0;right=0;align=left;spacingLeft=6;overflow=hidden;" vertex="1" parent="9G6bg_ibOIS68hajb5Cq-85">
          <mxGeometry x="30" width="150" height="30" as="geometry" />
        </mxCell>
        <mxCell id="9G6bg_ibOIS68hajb5Cq-88" value="" style="shape=partialRectangle;collapsible=0;dropTarget=0;pointerEvents=0;fillColor=none;top=0;left=0;bottom=0;right=0;points=[[0,0.5],[1,0.5]];portConstraint=eastwest;" vertex="1" parent="9G6bg_ibOIS68hajb5Cq-78">
          <mxGeometry y="120" width="180" height="30" as="geometry" />
        </mxCell>
        <mxCell id="9G6bg_ibOIS68hajb5Cq-89" value="" style="shape=partialRectangle;connectable=0;fillColor=none;top=0;left=0;bottom=0;right=0;editable=1;overflow=hidden;" vertex="1" parent="9G6bg_ibOIS68hajb5Cq-88">
          <mxGeometry width="30" height="30" as="geometry" />
        </mxCell>
        <mxCell id="9G6bg_ibOIS68hajb5Cq-90" value="cover_photo" style="shape=partialRectangle;connectable=0;fillColor=none;top=0;left=0;bottom=0;right=0;align=left;spacingLeft=6;overflow=hidden;" vertex="1" parent="9G6bg_ibOIS68hajb5Cq-88">
          <mxGeometry x="30" width="150" height="30" as="geometry" />
        </mxCell>
        <mxCell id="9G6bg_ibOIS68hajb5Cq-41" value="properties" style="shape=table;startSize=30;container=1;collapsible=1;childLayout=tableLayout;fixedRows=1;rowLines=0;fontStyle=1;align=center;resizeLast=1;fillColor=#f5f5f5;fontColor=#333333;strokeColor=#4C0099;" vertex="1" parent="1">
          <mxGeometry x="420" y="150" width="180" height="450" as="geometry" />
        </mxCell>
        <mxCell id="9G6bg_ibOIS68hajb5Cq-42" value="" style="shape=partialRectangle;collapsible=0;dropTarget=0;pointerEvents=0;fillColor=none;top=0;left=0;bottom=1;right=0;points=[[0,0.5],[1,0.5]];portConstraint=eastwest;" vertex="1" parent="9G6bg_ibOIS68hajb5Cq-41">
          <mxGeometry y="30" width="180" height="30" as="geometry" />
        </mxCell>
        <mxCell id="9G6bg_ibOIS68hajb5Cq-43" value="PK" style="shape=partialRectangle;connectable=0;fillColor=none;top=0;left=0;bottom=0;right=0;fontStyle=1;overflow=hidden;" vertex="1" parent="9G6bg_ibOIS68hajb5Cq-42">
          <mxGeometry width="30" height="30" as="geometry" />
        </mxCell>
        <mxCell id="9G6bg_ibOIS68hajb5Cq-44" value="id" style="shape=partialRectangle;connectable=0;fillColor=none;top=0;left=0;bottom=0;right=0;align=left;spacingLeft=6;fontStyle=1;overflow=hidden;" vertex="1" parent="9G6bg_ibOIS68hajb5Cq-42">
          <mxGeometry x="30" width="150" height="30" as="geometry" />
        </mxCell>
        <mxCell id="9G6bg_ibOIS68hajb5Cq-45" value="" style="shape=partialRectangle;collapsible=0;dropTarget=0;pointerEvents=0;fillColor=none;top=0;left=0;bottom=0;right=0;points=[[0,0.5],[1,0.5]];portConstraint=eastwest;" vertex="1" parent="9G6bg_ibOIS68hajb5Cq-41">
          <mxGeometry y="60" width="180" height="30" as="geometry" />
        </mxCell>
        <mxCell id="9G6bg_ibOIS68hajb5Cq-46" value="" style="shape=partialRectangle;connectable=0;fillColor=none;top=0;left=0;bottom=0;right=0;editable=1;overflow=hidden;" vertex="1" parent="9G6bg_ibOIS68hajb5Cq-45">
          <mxGeometry width="30" height="30" as="geometry" />
        </mxCell>
        <mxCell id="9G6bg_ibOIS68hajb5Cq-47" value="title" style="shape=partialRectangle;connectable=0;fillColor=none;top=0;left=0;bottom=0;right=0;align=left;spacingLeft=6;overflow=hidden;" vertex="1" parent="9G6bg_ibOIS68hajb5Cq-45">
          <mxGeometry x="30" width="150" height="30" as="geometry" />
        </mxCell>
        <mxCell id="9G6bg_ibOIS68hajb5Cq-48" value="" style="shape=partialRectangle;collapsible=0;dropTarget=0;pointerEvents=0;fillColor=none;top=0;left=0;bottom=0;right=0;points=[[0,0.5],[1,0.5]];portConstraint=eastwest;" vertex="1" parent="9G6bg_ibOIS68hajb5Cq-41">
          <mxGeometry y="90" width="180" height="30" as="geometry" />
        </mxCell>
        <mxCell id="9G6bg_ibOIS68hajb5Cq-49" value="" style="shape=partialRectangle;connectable=0;fillColor=none;top=0;left=0;bottom=0;right=0;editable=1;overflow=hidden;" vertex="1" parent="9G6bg_ibOIS68hajb5Cq-48">
          <mxGeometry width="30" height="30" as="geometry" />
        </mxCell>
        <mxCell id="9G6bg_ibOIS68hajb5Cq-50" value="description" style="shape=partialRectangle;connectable=0;fillColor=none;top=0;left=0;bottom=0;right=0;align=left;spacingLeft=6;overflow=hidden;" vertex="1" parent="9G6bg_ibOIS68hajb5Cq-48">
          <mxGeometry x="30" width="150" height="30" as="geometry" />
        </mxCell>
        <mxCell id="9G6bg_ibOIS68hajb5Cq-51" value="" style="shape=partialRectangle;collapsible=0;dropTarget=0;pointerEvents=0;fillColor=none;top=0;left=0;bottom=0;right=0;points=[[0,0.5],[1,0.5]];portConstraint=eastwest;" vertex="1" parent="9G6bg_ibOIS68hajb5Cq-41">
          <mxGeometry y="120" width="180" height="30" as="geometry" />
        </mxCell>
        <mxCell id="9G6bg_ibOIS68hajb5Cq-52" value="" style="shape=partialRectangle;connectable=0;fillColor=none;top=0;left=0;bottom=0;right=0;editable=1;overflow=hidden;" vertex="1" parent="9G6bg_ibOIS68hajb5Cq-51">
          <mxGeometry width="30" height="30" as="geometry" />
        </mxCell>
        <mxCell id="9G6bg_ibOIS68hajb5Cq-53" value="cost_per_night" style="shape=partialRectangle;connectable=0;fillColor=none;top=0;left=0;bottom=0;right=0;align=left;spacingLeft=6;overflow=hidden;" vertex="1" parent="9G6bg_ibOIS68hajb5Cq-51">
          <mxGeometry x="30" width="150" height="30" as="geometry" />
        </mxCell>
        <mxCell id="9G6bg_ibOIS68hajb5Cq-72" value="" style="shape=partialRectangle;collapsible=0;dropTarget=0;pointerEvents=0;fillColor=none;top=0;left=0;bottom=0;right=0;points=[[0,0.5],[1,0.5]];portConstraint=eastwest;" vertex="1" parent="9G6bg_ibOIS68hajb5Cq-41">
          <mxGeometry y="150" width="180" height="30" as="geometry" />
        </mxCell>
        <mxCell id="9G6bg_ibOIS68hajb5Cq-73" value="" style="shape=partialRectangle;connectable=0;fillColor=none;top=0;left=0;bottom=0;right=0;fontStyle=0;overflow=hidden;" vertex="1" parent="9G6bg_ibOIS68hajb5Cq-72">
          <mxGeometry width="30" height="30" as="geometry" />
        </mxCell>
        <mxCell id="9G6bg_ibOIS68hajb5Cq-74" value="parking_spaces" style="shape=partialRectangle;connectable=0;fillColor=none;top=0;left=0;bottom=0;right=0;align=left;spacingLeft=6;fontStyle=0;overflow=hidden;" vertex="1" parent="9G6bg_ibOIS68hajb5Cq-72">
          <mxGeometry x="30" width="150" height="30" as="geometry" />
        </mxCell>
        <mxCell id="9G6bg_ibOIS68hajb5Cq-69" value="" style="shape=partialRectangle;collapsible=0;dropTarget=0;pointerEvents=0;fillColor=none;top=0;left=0;bottom=0;right=0;points=[[0,0.5],[1,0.5]];portConstraint=eastwest;" vertex="1" parent="9G6bg_ibOIS68hajb5Cq-41">
          <mxGeometry y="180" width="180" height="30" as="geometry" />
        </mxCell>
        <mxCell id="9G6bg_ibOIS68hajb5Cq-70" value="" style="shape=partialRectangle;connectable=0;fillColor=none;top=0;left=0;bottom=0;right=0;fontStyle=0;overflow=hidden;" vertex="1" parent="9G6bg_ibOIS68hajb5Cq-69">
          <mxGeometry width="30" height="30" as="geometry" />
        </mxCell>
        <mxCell id="9G6bg_ibOIS68hajb5Cq-71" value="number_of_bathrooms" style="shape=partialRectangle;connectable=0;fillColor=none;top=0;left=0;bottom=0;right=0;align=left;spacingLeft=6;fontStyle=0;overflow=hidden;" vertex="1" parent="9G6bg_ibOIS68hajb5Cq-69">
          <mxGeometry x="30" width="150" height="30" as="geometry" />
        </mxCell>
        <mxCell id="9G6bg_ibOIS68hajb5Cq-75" value="" style="shape=partialRectangle;collapsible=0;dropTarget=0;pointerEvents=0;fillColor=none;top=0;left=0;bottom=0;right=0;points=[[0,0.5],[1,0.5]];portConstraint=eastwest;" vertex="1" parent="9G6bg_ibOIS68hajb5Cq-41">
          <mxGeometry y="210" width="180" height="30" as="geometry" />
        </mxCell>
        <mxCell id="9G6bg_ibOIS68hajb5Cq-76" value="" style="shape=partialRectangle;connectable=0;fillColor=none;top=0;left=0;bottom=0;right=0;fontStyle=0;overflow=hidden;" vertex="1" parent="9G6bg_ibOIS68hajb5Cq-75">
          <mxGeometry width="30" height="30" as="geometry" />
        </mxCell>
        <mxCell id="9G6bg_ibOIS68hajb5Cq-77" value="number_of_bedrooms" style="shape=partialRectangle;connectable=0;fillColor=none;top=0;left=0;bottom=0;right=0;align=left;spacingLeft=6;fontStyle=0;overflow=hidden;" vertex="1" parent="9G6bg_ibOIS68hajb5Cq-75">
          <mxGeometry x="30" width="150" height="30" as="geometry" />
        </mxCell>
        <mxCell id="9G6bg_ibOIS68hajb5Cq-120" value="" style="shape=partialRectangle;collapsible=0;dropTarget=0;pointerEvents=0;fillColor=none;top=0;left=0;bottom=0;right=0;points=[[0,0.5],[1,0.5]];portConstraint=eastwest;" vertex="1" parent="9G6bg_ibOIS68hajb5Cq-41">
          <mxGeometry y="240" width="180" height="30" as="geometry" />
        </mxCell>
        <mxCell id="9G6bg_ibOIS68hajb5Cq-121" value="" style="shape=partialRectangle;connectable=0;fillColor=none;top=0;left=0;bottom=0;right=0;fontStyle=0;overflow=hidden;" vertex="1" parent="9G6bg_ibOIS68hajb5Cq-120">
          <mxGeometry width="30" height="30" as="geometry" />
        </mxCell>
        <mxCell id="9G6bg_ibOIS68hajb5Cq-122" value="available" style="shape=partialRectangle;connectable=0;fillColor=none;top=0;left=0;bottom=0;right=0;align=left;spacingLeft=6;fontStyle=0;overflow=hidden;" vertex="1" parent="9G6bg_ibOIS68hajb5Cq-120">
          <mxGeometry x="30" width="150" height="30" as="geometry" />
        </mxCell>
        <mxCell id="9G6bg_ibOIS68hajb5Cq-155" value="" style="shape=partialRectangle;collapsible=0;dropTarget=0;pointerEvents=0;fillColor=none;top=0;left=0;bottom=0;right=0;points=[[0,0.5],[1,0.5]];portConstraint=eastwest;" vertex="1" parent="9G6bg_ibOIS68hajb5Cq-41">
          <mxGeometry y="270" width="180" height="30" as="geometry" />
        </mxCell>
        <mxCell id="9G6bg_ibOIS68hajb5Cq-156" value="FK" style="shape=partialRectangle;connectable=0;fillColor=none;top=0;left=0;bottom=0;right=0;fontStyle=0;overflow=hidden;" vertex="1" parent="9G6bg_ibOIS68hajb5Cq-155">
          <mxGeometry width="30" height="30" as="geometry" />
        </mxCell>
        <mxCell id="9G6bg_ibOIS68hajb5Cq-157" value="host_id" style="shape=partialRectangle;connectable=0;fillColor=none;top=0;left=0;bottom=0;right=0;align=left;spacingLeft=6;fontStyle=0;overflow=hidden;" vertex="1" parent="9G6bg_ibOIS68hajb5Cq-155">
          <mxGeometry x="30" width="150" height="30" as="geometry" />
        </mxCell>
        <mxCell id="9G6bg_ibOIS68hajb5Cq-160" value="" style="shape=partialRectangle;collapsible=0;dropTarget=0;pointerEvents=0;fillColor=none;top=0;left=0;bottom=0;right=0;points=[[0,0.5],[1,0.5]];portConstraint=eastwest;" vertex="1" parent="9G6bg_ibOIS68hajb5Cq-41">
          <mxGeometry y="300" width="180" height="30" as="geometry" />
        </mxCell>
        <mxCell id="9G6bg_ibOIS68hajb5Cq-161" value="FK" style="shape=partialRectangle;connectable=0;fillColor=none;top=0;left=0;bottom=0;right=0;fontStyle=0;overflow=hidden;" vertex="1" parent="9G6bg_ibOIS68hajb5Cq-160">
          <mxGeometry width="30" height="30" as="geometry" />
        </mxCell>
        <mxCell id="9G6bg_ibOIS68hajb5Cq-162" value="guest_id" style="shape=partialRectangle;connectable=0;fillColor=none;top=0;left=0;bottom=0;right=0;align=left;spacingLeft=6;fontStyle=0;overflow=hidden;" vertex="1" parent="9G6bg_ibOIS68hajb5Cq-160">
          <mxGeometry x="30" width="150" height="30" as="geometry" />
        </mxCell>
        <mxCell id="9G6bg_ibOIS68hajb5Cq-153" value="" style="fontSize=12;html=1;endArrow=ERmandOne;startArrow=ERmandOne;entryX=0;entryY=0.5;entryDx=0;entryDy=0;edgeStyle=orthogonalEdgeStyle;exitX=0;exitY=0.5;exitDx=0;exitDy=0;" edge="1" parent="1" source="9G6bg_ibOIS68hajb5Cq-95" target="9G6bg_ibOIS68hajb5Cq-42">
          <mxGeometry width="100" height="100" relative="1" as="geometry">
            <mxPoint x="600" y="680" as="sourcePoint" />
            <mxPoint x="410" y="440" as="targetPoint" />
            <Array as="points">
              <mxPoint x="630" y="565" />
              <mxPoint x="630" y="640" />
              <mxPoint x="360" y="640" />
              <mxPoint x="360" y="195" />
            </Array>
          </mxGeometry>
        </mxCell>
        <mxCell id="9G6bg_ibOIS68hajb5Cq-15" value="property_reviews" style="shape=table;startSize=30;container=1;collapsible=1;childLayout=tableLayout;fixedRows=1;rowLines=0;fontStyle=1;align=center;resizeLast=1;" vertex="1" parent="1">
          <mxGeometry x="420" y="760" width="180" height="230" as="geometry" />
        </mxCell>
        <mxCell id="9G6bg_ibOIS68hajb5Cq-16" value="" style="shape=partialRectangle;collapsible=0;dropTarget=0;pointerEvents=0;fillColor=none;top=0;left=0;bottom=1;right=0;points=[[0,0.5],[1,0.5]];portConstraint=eastwest;" vertex="1" parent="9G6bg_ibOIS68hajb5Cq-15">
          <mxGeometry y="30" width="180" height="30" as="geometry" />
        </mxCell>
        <mxCell id="9G6bg_ibOIS68hajb5Cq-17" value="PK" style="shape=partialRectangle;connectable=0;fillColor=none;top=0;left=0;bottom=0;right=0;fontStyle=1;overflow=hidden;" vertex="1" parent="9G6bg_ibOIS68hajb5Cq-16">
          <mxGeometry width="30" height="30" as="geometry" />
        </mxCell>
        <mxCell id="9G6bg_ibOIS68hajb5Cq-18" value="id" style="shape=partialRectangle;connectable=0;fillColor=none;top=0;left=0;bottom=0;right=0;align=left;spacingLeft=6;fontStyle=1;overflow=hidden;" vertex="1" parent="9G6bg_ibOIS68hajb5Cq-16">
          <mxGeometry x="30" width="150" height="30" as="geometry" />
        </mxCell>
        <mxCell id="9G6bg_ibOIS68hajb5Cq-19" value="" style="shape=partialRectangle;collapsible=0;dropTarget=0;pointerEvents=0;fillColor=none;top=0;left=0;bottom=0;right=0;points=[[0,0.5],[1,0.5]];portConstraint=eastwest;" vertex="1" parent="9G6bg_ibOIS68hajb5Cq-15">
          <mxGeometry y="60" width="180" height="30" as="geometry" />
        </mxCell>
        <mxCell id="9G6bg_ibOIS68hajb5Cq-20" value="" style="shape=partialRectangle;connectable=0;fillColor=none;top=0;left=0;bottom=0;right=0;editable=1;overflow=hidden;" vertex="1" parent="9G6bg_ibOIS68hajb5Cq-19">
          <mxGeometry width="30" height="30" as="geometry" />
        </mxCell>
        <mxCell id="9G6bg_ibOIS68hajb5Cq-21" value="rating" style="shape=partialRectangle;connectable=0;fillColor=none;top=0;left=0;bottom=0;right=0;align=left;spacingLeft=6;overflow=hidden;" vertex="1" parent="9G6bg_ibOIS68hajb5Cq-19">
          <mxGeometry x="30" width="150" height="30" as="geometry" />
        </mxCell>
        <mxCell id="9G6bg_ibOIS68hajb5Cq-22" value="" style="shape=partialRectangle;collapsible=0;dropTarget=0;pointerEvents=0;fillColor=none;top=0;left=0;bottom=0;right=0;points=[[0,0.5],[1,0.5]];portConstraint=eastwest;" vertex="1" parent="9G6bg_ibOIS68hajb5Cq-15">
          <mxGeometry y="90" width="180" height="30" as="geometry" />
        </mxCell>
        <mxCell id="9G6bg_ibOIS68hajb5Cq-23" value="" style="shape=partialRectangle;connectable=0;fillColor=none;top=0;left=0;bottom=0;right=0;editable=1;overflow=hidden;" vertex="1" parent="9G6bg_ibOIS68hajb5Cq-22">
          <mxGeometry width="30" height="30" as="geometry" />
        </mxCell>
        <mxCell id="9G6bg_ibOIS68hajb5Cq-24" value="message" style="shape=partialRectangle;connectable=0;fillColor=none;top=0;left=0;bottom=0;right=0;align=left;spacingLeft=6;overflow=hidden;" vertex="1" parent="9G6bg_ibOIS68hajb5Cq-22">
          <mxGeometry x="30" width="150" height="30" as="geometry" />
        </mxCell>
        <mxCell id="9G6bg_ibOIS68hajb5Cq-25" value="" style="shape=partialRectangle;collapsible=0;dropTarget=0;pointerEvents=0;fillColor=none;top=0;left=0;bottom=0;right=0;points=[[0,0.5],[1,0.5]];portConstraint=eastwest;" vertex="1" parent="9G6bg_ibOIS68hajb5Cq-15">
          <mxGeometry y="120" width="180" height="30" as="geometry" />
        </mxCell>
        <mxCell id="9G6bg_ibOIS68hajb5Cq-26" value="FK" style="shape=partialRectangle;connectable=0;fillColor=none;top=0;left=0;bottom=0;right=0;editable=1;overflow=hidden;" vertex="1" parent="9G6bg_ibOIS68hajb5Cq-25">
          <mxGeometry width="30" height="30" as="geometry" />
        </mxCell>
        <mxCell id="9G6bg_ibOIS68hajb5Cq-27" value="reservation_id" style="shape=partialRectangle;connectable=0;fillColor=none;top=0;left=0;bottom=0;right=0;align=left;spacingLeft=6;overflow=hidden;" vertex="1" parent="9G6bg_ibOIS68hajb5Cq-25">
          <mxGeometry x="30" width="150" height="30" as="geometry" />
        </mxCell>
        <mxCell id="9G6bg_ibOIS68hajb5Cq-143" value="" style="shape=partialRectangle;collapsible=0;dropTarget=0;pointerEvents=0;fillColor=none;top=0;left=0;bottom=0;right=0;points=[[0,0.5],[1,0.5]];portConstraint=eastwest;" vertex="1" parent="9G6bg_ibOIS68hajb5Cq-15">
          <mxGeometry y="150" width="180" height="30" as="geometry" />
        </mxCell>
        <mxCell id="9G6bg_ibOIS68hajb5Cq-144" value="FK" style="shape=partialRectangle;connectable=0;fillColor=none;top=0;left=0;bottom=0;right=0;fontStyle=0;overflow=hidden;" vertex="1" parent="9G6bg_ibOIS68hajb5Cq-143">
          <mxGeometry width="30" height="30" as="geometry" />
        </mxCell>
        <mxCell id="9G6bg_ibOIS68hajb5Cq-145" value="guest_id" style="shape=partialRectangle;connectable=0;fillColor=none;top=0;left=0;bottom=0;right=0;align=left;spacingLeft=6;fontStyle=0;overflow=hidden;" vertex="1" parent="9G6bg_ibOIS68hajb5Cq-143">
          <mxGeometry x="30" width="150" height="30" as="geometry" />
        </mxCell>
        <mxCell id="9G6bg_ibOIS68hajb5Cq-1" value="hosts" style="shape=table;startSize=30;container=1;collapsible=1;childLayout=tableLayout;fixedRows=1;rowLines=0;fontStyle=1;align=center;resizeLast=1;strokeColor=#000099;" vertex="1" parent="1">
          <mxGeometry x="90" y="390" width="180" height="260" as="geometry" />
        </mxCell>
        <mxCell id="9G6bg_ibOIS68hajb5Cq-2" value="" style="shape=partialRectangle;collapsible=0;dropTarget=0;pointerEvents=0;fillColor=none;top=0;left=0;bottom=1;right=0;points=[[0,0.5],[1,0.5]];portConstraint=eastwest;" vertex="1" parent="9G6bg_ibOIS68hajb5Cq-1">
          <mxGeometry y="30" width="180" height="30" as="geometry" />
        </mxCell>
        <mxCell id="9G6bg_ibOIS68hajb5Cq-3" value="PK" style="shape=partialRectangle;connectable=0;fillColor=none;top=0;left=0;bottom=0;right=0;fontStyle=1;overflow=hidden;" vertex="1" parent="9G6bg_ibOIS68hajb5Cq-2">
          <mxGeometry width="30" height="30" as="geometry" />
        </mxCell>
        <mxCell id="9G6bg_ibOIS68hajb5Cq-4" value="id" style="shape=partialRectangle;connectable=0;fillColor=none;top=0;left=0;bottom=0;right=0;align=left;spacingLeft=6;fontStyle=5;overflow=hidden;" vertex="1" parent="9G6bg_ibOIS68hajb5Cq-2">
          <mxGeometry x="30" width="150" height="30" as="geometry" />
        </mxCell>
        <mxCell id="9G6bg_ibOIS68hajb5Cq-5" value="" style="shape=partialRectangle;collapsible=0;dropTarget=0;pointerEvents=0;fillColor=none;top=0;left=0;bottom=0;right=0;points=[[0,0.5],[1,0.5]];portConstraint=eastwest;" vertex="1" parent="9G6bg_ibOIS68hajb5Cq-1">
          <mxGeometry y="60" width="180" height="30" as="geometry" />
        </mxCell>
        <mxCell id="9G6bg_ibOIS68hajb5Cq-6" value="" style="shape=partialRectangle;connectable=0;fillColor=none;top=0;left=0;bottom=0;right=0;editable=1;overflow=hidden;" vertex="1" parent="9G6bg_ibOIS68hajb5Cq-5">
          <mxGeometry width="30" height="30" as="geometry" />
        </mxCell>
        <mxCell id="9G6bg_ibOIS68hajb5Cq-7" value="name" style="shape=partialRectangle;connectable=0;fillColor=none;top=0;left=0;bottom=0;right=0;align=left;spacingLeft=6;overflow=hidden;" vertex="1" parent="9G6bg_ibOIS68hajb5Cq-5">
          <mxGeometry x="30" width="150" height="30" as="geometry" />
        </mxCell>
        <mxCell id="9G6bg_ibOIS68hajb5Cq-8" value="" style="shape=partialRectangle;collapsible=0;dropTarget=0;pointerEvents=0;fillColor=none;top=0;left=0;bottom=0;right=0;points=[[0,0.5],[1,0.5]];portConstraint=eastwest;" vertex="1" parent="9G6bg_ibOIS68hajb5Cq-1">
          <mxGeometry y="90" width="180" height="30" as="geometry" />
        </mxCell>
        <mxCell id="9G6bg_ibOIS68hajb5Cq-9" value="" style="shape=partialRectangle;connectable=0;fillColor=none;top=0;left=0;bottom=0;right=0;editable=1;overflow=hidden;" vertex="1" parent="9G6bg_ibOIS68hajb5Cq-8">
          <mxGeometry width="30" height="30" as="geometry" />
        </mxCell>
        <mxCell id="9G6bg_ibOIS68hajb5Cq-10" value="email" style="shape=partialRectangle;connectable=0;fillColor=none;top=0;left=0;bottom=0;right=0;align=left;spacingLeft=6;overflow=hidden;" vertex="1" parent="9G6bg_ibOIS68hajb5Cq-8">
          <mxGeometry x="30" width="150" height="30" as="geometry" />
        </mxCell>
        <mxCell id="9G6bg_ibOIS68hajb5Cq-11" value="" style="shape=partialRectangle;collapsible=0;dropTarget=0;pointerEvents=0;fillColor=none;top=0;left=0;bottom=0;right=0;points=[[0,0.5],[1,0.5]];portConstraint=eastwest;" vertex="1" parent="9G6bg_ibOIS68hajb5Cq-1">
          <mxGeometry y="120" width="180" height="30" as="geometry" />
        </mxCell>
        <mxCell id="9G6bg_ibOIS68hajb5Cq-12" value="" style="shape=partialRectangle;connectable=0;fillColor=none;top=0;left=0;bottom=0;right=0;editable=1;overflow=hidden;" vertex="1" parent="9G6bg_ibOIS68hajb5Cq-11">
          <mxGeometry width="30" height="30" as="geometry" />
        </mxCell>
        <mxCell id="9G6bg_ibOIS68hajb5Cq-13" value="password" style="shape=partialRectangle;connectable=0;fillColor=none;top=0;left=0;bottom=0;right=0;align=left;spacingLeft=6;overflow=hidden;" vertex="1" parent="9G6bg_ibOIS68hajb5Cq-11">
          <mxGeometry x="30" width="150" height="30" as="geometry" />
        </mxCell>
        <mxCell id="9G6bg_ibOIS68hajb5Cq-149" value="" style="shape=partialRectangle;collapsible=0;dropTarget=0;pointerEvents=0;fillColor=none;top=0;left=0;bottom=0;right=0;points=[[0,0.5],[1,0.5]];portConstraint=eastwest;" vertex="1" parent="9G6bg_ibOIS68hajb5Cq-1">
          <mxGeometry y="150" width="180" height="30" as="geometry" />
        </mxCell>
        <mxCell id="9G6bg_ibOIS68hajb5Cq-150" value="FK" style="shape=partialRectangle;connectable=0;fillColor=none;top=0;left=0;bottom=0;right=0;fontStyle=0;overflow=hidden;" vertex="1" parent="9G6bg_ibOIS68hajb5Cq-149">
          <mxGeometry width="30" height="30" as="geometry" />
        </mxCell>
        <mxCell id="9G6bg_ibOIS68hajb5Cq-151" value="property_id" style="shape=partialRectangle;connectable=0;fillColor=none;top=0;left=0;bottom=0;right=0;align=left;spacingLeft=6;fontStyle=0;overflow=hidden;" vertex="1" parent="9G6bg_ibOIS68hajb5Cq-149">
          <mxGeometry x="30" width="150" height="30" as="geometry" />
        </mxCell>
        <mxCell id="9G6bg_ibOIS68hajb5Cq-54" value="reservations" style="shape=table;startSize=30;container=1;collapsible=1;childLayout=tableLayout;fixedRows=1;rowLines=0;fontStyle=1;align=center;resizeLast=1;" vertex="1" parent="1">
          <mxGeometry x="90" y="10" width="180" height="220" as="geometry" />
        </mxCell>
        <mxCell id="9G6bg_ibOIS68hajb5Cq-55" value="" style="shape=partialRectangle;collapsible=0;dropTarget=0;pointerEvents=0;fillColor=none;top=0;left=0;bottom=1;right=0;points=[[0,0.5],[1,0.5]];portConstraint=eastwest;" vertex="1" parent="9G6bg_ibOIS68hajb5Cq-54">
          <mxGeometry y="30" width="180" height="30" as="geometry" />
        </mxCell>
        <mxCell id="9G6bg_ibOIS68hajb5Cq-56" value="PK" style="shape=partialRectangle;connectable=0;fillColor=none;top=0;left=0;bottom=0;right=0;fontStyle=1;overflow=hidden;" vertex="1" parent="9G6bg_ibOIS68hajb5Cq-55">
          <mxGeometry width="30" height="30" as="geometry" />
        </mxCell>
        <mxCell id="9G6bg_ibOIS68hajb5Cq-57" value="id" style="shape=partialRectangle;connectable=0;fillColor=none;top=0;left=0;bottom=0;right=0;align=left;spacingLeft=6;fontStyle=1;overflow=hidden;" vertex="1" parent="9G6bg_ibOIS68hajb5Cq-55">
          <mxGeometry x="30" width="150" height="30" as="geometry" />
        </mxCell>
        <mxCell id="9G6bg_ibOIS68hajb5Cq-58" value="" style="shape=partialRectangle;collapsible=0;dropTarget=0;pointerEvents=0;fillColor=none;top=0;left=0;bottom=0;right=0;points=[[0,0.5],[1,0.5]];portConstraint=eastwest;" vertex="1" parent="9G6bg_ibOIS68hajb5Cq-54">
          <mxGeometry y="60" width="180" height="30" as="geometry" />
        </mxCell>
        <mxCell id="9G6bg_ibOIS68hajb5Cq-59" value="" style="shape=partialRectangle;connectable=0;fillColor=none;top=0;left=0;bottom=0;right=0;editable=1;overflow=hidden;" vertex="1" parent="9G6bg_ibOIS68hajb5Cq-58">
          <mxGeometry width="30" height="30" as="geometry" />
        </mxCell>
        <mxCell id="9G6bg_ibOIS68hajb5Cq-60" value="start_date" style="shape=partialRectangle;connectable=0;fillColor=none;top=0;left=0;bottom=0;right=0;align=left;spacingLeft=6;overflow=hidden;" vertex="1" parent="9G6bg_ibOIS68hajb5Cq-58">
          <mxGeometry x="30" width="150" height="30" as="geometry" />
        </mxCell>
        <mxCell id="9G6bg_ibOIS68hajb5Cq-61" value="" style="shape=partialRectangle;collapsible=0;dropTarget=0;pointerEvents=0;fillColor=none;top=0;left=0;bottom=0;right=0;points=[[0,0.5],[1,0.5]];portConstraint=eastwest;" vertex="1" parent="9G6bg_ibOIS68hajb5Cq-54">
          <mxGeometry y="90" width="180" height="30" as="geometry" />
        </mxCell>
        <mxCell id="9G6bg_ibOIS68hajb5Cq-62" value="" style="shape=partialRectangle;connectable=0;fillColor=none;top=0;left=0;bottom=0;right=0;editable=1;overflow=hidden;" vertex="1" parent="9G6bg_ibOIS68hajb5Cq-61">
          <mxGeometry width="30" height="30" as="geometry" />
        </mxCell>
        <mxCell id="9G6bg_ibOIS68hajb5Cq-63" value="end_date" style="shape=partialRectangle;connectable=0;fillColor=none;top=0;left=0;bottom=0;right=0;align=left;spacingLeft=6;overflow=hidden;" vertex="1" parent="9G6bg_ibOIS68hajb5Cq-61">
          <mxGeometry x="30" width="150" height="30" as="geometry" />
        </mxCell>
        <mxCell id="9G6bg_ibOIS68hajb5Cq-64" value="" style="shape=partialRectangle;collapsible=0;dropTarget=0;pointerEvents=0;fillColor=none;top=0;left=0;bottom=0;right=0;points=[[0,0.5],[1,0.5]];portConstraint=eastwest;" vertex="1" parent="9G6bg_ibOIS68hajb5Cq-54">
          <mxGeometry y="120" width="180" height="30" as="geometry" />
        </mxCell>
        <mxCell id="9G6bg_ibOIS68hajb5Cq-65" value="FK" style="shape=partialRectangle;connectable=0;fillColor=none;top=0;left=0;bottom=0;right=0;editable=1;overflow=hidden;" vertex="1" parent="9G6bg_ibOIS68hajb5Cq-64">
          <mxGeometry width="30" height="30" as="geometry" />
        </mxCell>
        <mxCell id="9G6bg_ibOIS68hajb5Cq-66" value="host_id" style="shape=partialRectangle;connectable=0;fillColor=none;top=0;left=0;bottom=0;right=0;align=left;spacingLeft=6;overflow=hidden;" vertex="1" parent="9G6bg_ibOIS68hajb5Cq-64">
          <mxGeometry x="30" width="150" height="30" as="geometry" />
        </mxCell>
        <mxCell id="9G6bg_ibOIS68hajb5Cq-140" value="" style="shape=partialRectangle;collapsible=0;dropTarget=0;pointerEvents=0;fillColor=none;top=0;left=0;bottom=0;right=0;points=[[0,0.5],[1,0.5]];portConstraint=eastwest;" vertex="1" parent="9G6bg_ibOIS68hajb5Cq-54">
          <mxGeometry y="150" width="180" height="30" as="geometry" />
        </mxCell>
        <mxCell id="9G6bg_ibOIS68hajb5Cq-141" value="FK" style="shape=partialRectangle;connectable=0;fillColor=none;top=0;left=0;bottom=0;right=0;fontStyle=0;overflow=hidden;" vertex="1" parent="9G6bg_ibOIS68hajb5Cq-140">
          <mxGeometry width="30" height="30" as="geometry" />
        </mxCell>
        <mxCell id="9G6bg_ibOIS68hajb5Cq-142" value="property_id" style="shape=partialRectangle;connectable=0;fillColor=none;top=0;left=0;bottom=0;right=0;align=left;spacingLeft=6;fontStyle=0;overflow=hidden;" vertex="1" parent="9G6bg_ibOIS68hajb5Cq-140">
          <mxGeometry x="30" width="150" height="30" as="geometry" />
        </mxCell>
        <mxCell id="9G6bg_ibOIS68hajb5Cq-146" value="" style="shape=partialRectangle;collapsible=0;dropTarget=0;pointerEvents=0;fillColor=none;top=0;left=0;bottom=0;right=0;points=[[0,0.5],[1,0.5]];portConstraint=eastwest;" vertex="1" parent="9G6bg_ibOIS68hajb5Cq-54">
          <mxGeometry y="180" width="180" height="30" as="geometry" />
        </mxCell>
        <mxCell id="9G6bg_ibOIS68hajb5Cq-147" value="FK" style="shape=partialRectangle;connectable=0;fillColor=none;top=0;left=0;bottom=0;right=0;fontStyle=0;overflow=hidden;" vertex="1" parent="9G6bg_ibOIS68hajb5Cq-146">
          <mxGeometry width="30" height="30" as="geometry" />
        </mxCell>
        <mxCell id="9G6bg_ibOIS68hajb5Cq-148" value="guest_id" style="shape=partialRectangle;connectable=0;fillColor=none;top=0;left=0;bottom=0;right=0;align=left;spacingLeft=6;fontStyle=0;overflow=hidden;" vertex="1" parent="9G6bg_ibOIS68hajb5Cq-146">
          <mxGeometry x="30" width="150" height="30" as="geometry" />
        </mxCell>
        <mxCell id="9G6bg_ibOIS68hajb5Cq-28" value="guests" style="shape=table;startSize=30;container=1;collapsible=1;childLayout=tableLayout;fixedRows=1;rowLines=0;fontStyle=1;align=center;resizeLast=1;" vertex="1" parent="1">
          <mxGeometry x="90" y="760" width="180" height="130" as="geometry" />
        </mxCell>
        <mxCell id="9G6bg_ibOIS68hajb5Cq-29" value="" style="shape=partialRectangle;collapsible=0;dropTarget=0;pointerEvents=0;fillColor=none;top=0;left=0;bottom=1;right=0;points=[[0,0.5],[1,0.5]];portConstraint=eastwest;" vertex="1" parent="9G6bg_ibOIS68hajb5Cq-28">
          <mxGeometry y="30" width="180" height="30" as="geometry" />
        </mxCell>
        <mxCell id="9G6bg_ibOIS68hajb5Cq-30" value="PK" style="shape=partialRectangle;connectable=0;fillColor=none;top=0;left=0;bottom=0;right=0;fontStyle=1;overflow=hidden;" vertex="1" parent="9G6bg_ibOIS68hajb5Cq-29">
          <mxGeometry width="30" height="30" as="geometry" />
        </mxCell>
        <mxCell id="9G6bg_ibOIS68hajb5Cq-31" value="id" style="shape=partialRectangle;connectable=0;fillColor=none;top=0;left=0;bottom=0;right=0;align=left;spacingLeft=6;fontStyle=1;overflow=hidden;" vertex="1" parent="9G6bg_ibOIS68hajb5Cq-29">
          <mxGeometry x="30" width="150" height="30" as="geometry" />
        </mxCell>
        <mxCell id="9G6bg_ibOIS68hajb5Cq-32" value="" style="shape=partialRectangle;collapsible=0;dropTarget=0;pointerEvents=0;fillColor=none;top=0;left=0;bottom=0;right=0;points=[[0,0.5],[1,0.5]];portConstraint=eastwest;" vertex="1" parent="9G6bg_ibOIS68hajb5Cq-28">
          <mxGeometry y="60" width="180" height="30" as="geometry" />
        </mxCell>
        <mxCell id="9G6bg_ibOIS68hajb5Cq-33" value="FK" style="shape=partialRectangle;connectable=0;fillColor=none;top=0;left=0;bottom=0;right=0;editable=1;overflow=hidden;" vertex="1" parent="9G6bg_ibOIS68hajb5Cq-32">
          <mxGeometry width="30" height="30" as="geometry" />
        </mxCell>
        <mxCell id="9G6bg_ibOIS68hajb5Cq-34" value="reservation_id" style="shape=partialRectangle;connectable=0;fillColor=none;top=0;left=0;bottom=0;right=0;align=left;spacingLeft=6;overflow=hidden;" vertex="1" parent="9G6bg_ibOIS68hajb5Cq-32">
          <mxGeometry x="30" width="150" height="30" as="geometry" />
        </mxCell>
        <mxCell id="9G6bg_ibOIS68hajb5Cq-35" value="" style="shape=partialRectangle;collapsible=0;dropTarget=0;pointerEvents=0;fillColor=none;top=0;left=0;bottom=0;right=0;points=[[0,0.5],[1,0.5]];portConstraint=eastwest;" vertex="1" parent="9G6bg_ibOIS68hajb5Cq-28">
          <mxGeometry y="90" width="180" height="30" as="geometry" />
        </mxCell>
        <mxCell id="9G6bg_ibOIS68hajb5Cq-36" value="" style="shape=partialRectangle;connectable=0;fillColor=none;top=0;left=0;bottom=0;right=0;editable=1;overflow=hidden;" vertex="1" parent="9G6bg_ibOIS68hajb5Cq-35">
          <mxGeometry width="30" height="30" as="geometry" />
        </mxCell>
        <mxCell id="9G6bg_ibOIS68hajb5Cq-37" value="" style="shape=partialRectangle;connectable=0;fillColor=none;top=0;left=0;bottom=0;right=0;align=left;spacingLeft=6;overflow=hidden;" vertex="1" parent="9G6bg_ibOIS68hajb5Cq-35">
          <mxGeometry x="30" width="150" height="30" as="geometry" />
        </mxCell>
        <mxCell id="9G6bg_ibOIS68hajb5Cq-159" value="" style="fontSize=12;html=1;endArrow=ERoneToMany;exitX=0;exitY=0.5;exitDx=0;exitDy=0;entryX=0;entryY=0.5;entryDx=0;entryDy=0;edgeStyle=orthogonalEdgeStyle;" edge="1" parent="1" source="9G6bg_ibOIS68hajb5Cq-160" target="9G6bg_ibOIS68hajb5Cq-29">
          <mxGeometry width="100" height="100" relative="1" as="geometry">
            <mxPoint x="300" y="560" as="sourcePoint" />
            <mxPoint x="50" y="750" as="targetPoint" />
            <Array as="points">
              <mxPoint x="320" y="465" />
              <mxPoint x="320" y="700" />
              <mxPoint x="40" y="700" />
              <mxPoint x="40" y="805" />
            </Array>
          </mxGeometry>
        </mxCell>
        <mxCell id="9G6bg_ibOIS68hajb5Cq-163" value="" style="fontSize=12;html=1;endArrow=ERoneToMany;exitX=0;exitY=0.5;exitDx=0;exitDy=0;entryX=0;entryY=0.5;entryDx=0;entryDy=0;edgeStyle=orthogonalEdgeStyle;" edge="1" parent="1" source="9G6bg_ibOIS68hajb5Cq-29" target="9G6bg_ibOIS68hajb5Cq-146">
          <mxGeometry width="100" height="100" relative="1" as="geometry">
            <mxPoint x="210" y="1030" as="sourcePoint" />
            <mxPoint x="310" y="930" as="targetPoint" />
            <Array as="points">
              <mxPoint x="10" y="805" />
              <mxPoint x="10" y="205" />
            </Array>
          </mxGeometry>
        </mxCell>
        <mxCell id="9G6bg_ibOIS68hajb5Cq-164" value="" style="fontSize=12;html=1;endArrow=ERmandOne;startArrow=ERmandOne;entryX=0;entryY=0.5;entryDx=0;entryDy=0;exitX=0;exitY=0.5;exitDx=0;exitDy=0;edgeStyle=orthogonalEdgeStyle;" edge="1" parent="1" source="9G6bg_ibOIS68hajb5Cq-32" target="9G6bg_ibOIS68hajb5Cq-55">
          <mxGeometry width="100" height="100" relative="1" as="geometry">
            <mxPoint x="-180" y="470" as="sourcePoint" />
            <mxPoint x="-80" y="370" as="targetPoint" />
            <Array as="points">
              <mxPoint x="-40" y="835" />
              <mxPoint x="-40" y="55" />
            </Array>
          </mxGeometry>
        </mxCell>
        <mxCell id="9G6bg_ibOIS68hajb5Cq-165" value="" style="shape=table;startSize=0;container=1;collapsible=1;childLayout=tableLayout;fixedRows=1;rowLines=0;fontStyle=0;align=center;resizeLast=1;strokeColor=none;fillColor=none;" vertex="1" parent="1">
          <mxGeometry x="90" y="850" width="180" height="30" as="geometry" />
        </mxCell>
        <mxCell id="9G6bg_ibOIS68hajb5Cq-166" value="" style="shape=partialRectangle;collapsible=0;dropTarget=0;pointerEvents=0;fillColor=none;top=0;left=0;bottom=0;right=0;points=[[0,0.5],[1,0.5]];portConstraint=eastwest;" vertex="1" parent="9G6bg_ibOIS68hajb5Cq-165">
          <mxGeometry width="180" height="30" as="geometry" />
        </mxCell>
        <mxCell id="9G6bg_ibOIS68hajb5Cq-167" value="FK" style="shape=partialRectangle;connectable=0;fillColor=none;top=0;left=0;bottom=0;right=0;fontStyle=0;overflow=hidden;" vertex="1" parent="9G6bg_ibOIS68hajb5Cq-166">
          <mxGeometry width="30" height="30" as="geometry" />
        </mxCell>
        <mxCell id="9G6bg_ibOIS68hajb5Cq-168" value="property_review_id" style="shape=partialRectangle;connectable=0;fillColor=none;top=0;left=0;bottom=0;right=0;align=left;spacingLeft=6;fontStyle=0;overflow=hidden;" vertex="1" parent="9G6bg_ibOIS68hajb5Cq-166">
          <mxGeometry x="30" width="150" height="30" as="geometry" />
        </mxCell>
        <mxCell id="9G6bg_ibOIS68hajb5Cq-169" value="" style="fontSize=12;html=1;endArrow=ERoneToMany;exitX=0;exitY=0.5;exitDx=0;exitDy=0;edgeStyle=orthogonalEdgeStyle;entryX=0;entryY=0.5;entryDx=0;entryDy=0;" edge="1" parent="1" source="9G6bg_ibOIS68hajb5Cq-166" target="9G6bg_ibOIS68hajb5Cq-16">
          <mxGeometry width="100" height="100" relative="1" as="geometry">
            <mxPoint x="-90" y="1040" as="sourcePoint" />
            <mxPoint x="290" y="970" as="targetPoint" />
            <Array as="points">
              <mxPoint x="40" y="865" />
              <mxPoint x="40" y="970" />
              <mxPoint x="320" y="970" />
              <mxPoint x="320" y="805" />
            </Array>
          </mxGeometry>
        </mxCell>
        <mxCell id="9G6bg_ibOIS68hajb5Cq-171" value="" style="fontSize=12;html=1;endArrow=ERoneToMany;exitX=0;exitY=0.5;exitDx=0;exitDy=0;entryX=0;entryY=0.5;entryDx=0;entryDy=0;edgeStyle=orthogonalEdgeStyle;" edge="1" parent="1" source="9G6bg_ibOIS68hajb5Cq-55" target="9G6bg_ibOIS68hajb5Cq-25">
          <mxGeometry width="100" height="100" relative="1" as="geometry">
            <mxPoint x="-210" y="700" as="sourcePoint" />
            <mxPoint x="-110" y="600" as="targetPoint" />
            <Array as="points">
              <mxPoint x="-120" y="55" />
              <mxPoint x="-120" y="1010" />
              <mxPoint x="360" y="1010" />
              <mxPoint x="360" y="895" />
            </Array>
          </mxGeometry>
        </mxCell>
        <mxCell id="9G6bg_ibOIS68hajb5Cq-172" value="" style="fontSize=12;html=1;endArrow=ERmandOne;startArrow=ERmandOne;entryX=0;entryY=0.5;entryDx=0;entryDy=0;exitX=0;exitY=0.5;exitDx=0;exitDy=0;edgeStyle=orthogonalEdgeStyle;" edge="1" parent="1" source="9G6bg_ibOIS68hajb5Cq-143" target="9G6bg_ibOIS68hajb5Cq-29">
          <mxGeometry width="100" height="100" relative="1" as="geometry">
            <mxPoint x="-110" y="970" as="sourcePoint" />
            <mxPoint x="-10" y="870" as="targetPoint" />
            <Array as="points">
              <mxPoint x="400" y="925" />
              <mxPoint x="400" y="1060" />
              <mxPoint x="-80" y="1060" />
              <mxPoint x="-80" y="805" />
            </Array>
          </mxGeometry>
        </mxCell>
        <mxCell id="9G6bg_ibOIS68hajb5Cq-174" value="" style="fontSize=12;html=1;endArrow=ERoneToMany;exitX=0;exitY=0.5;exitDx=0;exitDy=0;entryX=0;entryY=0.5;entryDx=0;entryDy=0;edgeStyle=orthogonalEdgeStyle;" edge="1" parent="1" source="9G6bg_ibOIS68hajb5Cq-2" target="9G6bg_ibOIS68hajb5Cq-155">
          <mxGeometry width="100" height="100" relative="1" as="geometry">
            <mxPoint x="40" y="370" as="sourcePoint" />
            <mxPoint x="140" y="270" as="targetPoint" />
            <Array as="points">
              <mxPoint x="60" y="435" />
              <mxPoint x="60" y="340" />
              <mxPoint x="320" y="340" />
              <mxPoint x="320" y="435" />
            </Array>
          </mxGeometry>
        </mxCell>
        <mxCell id="9G6bg_ibOIS68hajb5Cq-175" value="" style="fontSize=12;html=1;endArrow=ERmany;exitX=0;exitY=0.5;exitDx=0;exitDy=0;entryX=0;entryY=0.5;entryDx=0;entryDy=0;edgeStyle=orthogonalEdgeStyle;" edge="1" parent="1" source="9G6bg_ibOIS68hajb5Cq-149" target="9G6bg_ibOIS68hajb5Cq-42">
          <mxGeometry width="100" height="100" relative="1" as="geometry">
            <mxPoint x="250" y="640" as="sourcePoint" />
            <mxPoint x="350" y="540" as="targetPoint" />
            <Array as="points">
              <mxPoint x="40" y="555" />
              <mxPoint x="40" y="280" />
              <mxPoint x="320" y="280" />
              <mxPoint x="320" y="195" />
            </Array>
          </mxGeometry>
        </mxCell>
      </root>
    </mxGraphModel>
  </diagram>
</mxfile>
